/* XPM */
static char *_4ada39b4a88441ed8208f32f6c2d215H4bcgbuSVIeQk2Bc[] = {
/* columns rows colors chars-per-pixel */
"64 64 175 2 ",
"   c #000001",
".  c #02050A",
"X  c #04090F",
"o  c #070E15",
"O  c #090F15",
"+  c #0A111B",
"@  c #1E1C18",
"#  c #13161B",
"$  c #0F1925",
"%  c #131B25",
"&  c #121D2B",
"*  c #162535",
"=  c #1A2330",
"-  c #2E2B27",
";  c #1F3244",
":  c #22354B",
">  c #25394E",
",  c #2B3C49",
"<  c #313A48",
"1  c #2B3C51",
"2  c #273C52",
"3  c #384961",
"4  c #37556C",
"5  c #375678",
"6  c #3B5975",
"7  c #615A51",
"8  c #60605D",
"9  c #3C75A6",
"0  c #3F77A8",
"q  c #3F78AA",
"w  c #406283",
"e  c #486A8D",
"r  c #456990",
"t  c #4A6E92",
"y  c #4B749C",
"u  c #557792",
"i  c #576A89",
"p  c #437BAD",
"a  c #4B75A2",
"s  c #5A7AA2",
"d  c #457FB1",
"f  c #7C8694",
"g  c #5080AE",
"h  c #5B82AE",
"j  c #4681B5",
"k  c #4983B5",
"l  c #4C86B9",
"z  c #4E8ABD",
"x  c #5C84B4",
"c  c #538BBE",
"v  c #5B8DBD",
"b  c #5B90BE",
"n  c #7888A3",
"m  c #6F97A4",
"M  c #6891B2",
"N  c #6692BF",
"B  c #4E8DC1",
"V  c #538FC2",
"C  c #588FC2",
"Z  c #5491C5",
"A  c #5C93C5",
"S  c #5594C9",
"D  c #5996CB",
"F  c #5B99CE",
"G  c #5D9CD4",
"H  c #5E9EDB",
"J  c #6397C7",
"K  c #6B9CC5",
"L  c #6296CA",
"P  c #619ACC",
"I  c #6C9BCE",
"U  c #649ED3",
"Y  c #6C9ED3",
"T  c #5FA1DD",
"R  c #67A0CF",
"E  c #74A9CE",
"W  c #65A1D6",
"Q  c #6CA2D5",
"!  c #64A3DB",
"~  c #6BA5DB",
"^  c #6DA9DC",
"/  c #74A2D5",
"(  c #78ADD4",
")  c #73A5D9",
"_  c #73AADC",
"`  c #79AEDA",
"'  c #7BB4DC",
"]  c #63A4E2",
"[  c #6AA7E0",
"{  c #6BABE3",
"}  c #67AAE8",
"|  c #6DADEB",
" . c #73ADE3",
".. c #7EAFE2",
"X. c #70AFEE",
"o. c #75B2E5",
"O. c #7DB2E5",
"+. c #73B3EB",
"@. c #79B6EB",
"#. c #7BB9EE",
"$. c #7EB9E3",
"%. c #71AFF0",
"&. c #6EB2F2",
"*. c #71B3F1",
"=. c #75BAF6",
"-. c #7CBCF3",
";. c #77BAF9",
":. c #7CBEF9",
">. c #7CC3F7",
",. c #7CC2FA",
"<. c #7FC8FB",
"1. c #86848B",
"2. c #959EAE",
"3. c #92A7C6",
"4. c #88AED7",
"5. c #83ADDE",
"6. c #93B3DA",
"7. c #86AEE4",
"8. c #8BB4E4",
"9. c #84B6E9",
"0. c #8EB7E8",
"q. c #82BBEC",
"w. c #84B1E6",
"e. c #80BCF0",
"r. c #A3BFE0",
"t. c #B7C3C6",
"y. c #86C6EF",
"u. c #88C0E9",
"i. c #9DC0ED",
"p. c #83C4F3",
"a. c #8EC2F2",
"s. c #89CEF4",
"d. c #83C5FA",
"f. c #86C9FE",
"g. c #83CBFB",
"h. c #8BCCFD",
"j. c #96CFFB",
"k. c #98CEFB",
"l. c #9DC3F3",
"z. c #87D1FC",
"x. c #8CD2FD",
"c. c #92D9F7",
"v. c #9AD8F0",
"b. c #93D1FB",
"n. c #90DCFE",
"m. c #9BDCFF",
"M. c #A4C0E7",
"N. c #AAC7E8",
"B. c #B3C6EF",
"V. c #B2CBEE",
"C. c #ACCCFB",
"Z. c #BACEF4",
"A. c #A1D0F0",
"S. c #A2DEFF",
"D. c #A2DAF4",
"F. c #9BE4FE",
"G. c #9CEBFD",
"H. c #96E3FC",
"J. c #ACE8FE",
"K. c #B1E4FE",
"L. c #B6EFFE",
"P. c #A9F0FF",
"I. c #CBC7D1",
"U. c #C9D7FC",
"Y. c #C4DBFF",
"T. c #C8E4FF",
"R. c #C5E5F5",
"E. c #D4EFFF",
"W. c #DCEEF9",
"Q. c #CAFBFE",
"!. c #EDECFE",
"~. c #F4EFF0",
"^. c #ECFFFF",
"/. c #F2FFFF",
"(. c #FDFFFE",
/* pixels */
"                                                                                                                                ",
"                                                                                                                                ",
"                                                                                                                                ",
"                                                                                                                                ",
"                                                                                                                                ",
"                                                                                                                                ",
"                                                                                                                                ",
"                                                                                                                                ",
"                                                                                                                                ",
"                                                                                                                                ",
"                                                                                                                                ",
"                                                                                                                                ",
"                                                                                                                                ",
"                                                                                                                                ",
"                                                                                                                                ",
"                                                                                                                                ",
"                                                                                                                                ",
"                                                                                                                                ",
"                                                                                                                                ",
"                                                              + : *                                                             ",
"                                                      & : 5 a K U D v e > +                                                     ",
"                                                  o s I Q ) L K b l V { -.O.y X                                                 ",
"                                                & N w./ A A W ! U ~ ~ U ^ o.@.g o                                               ",
"                                              : / O.e.W v P @.+.! d.f.:.:. .C ^ v $                                             ",
"                                            4 Q Y Q #.L c G ! D S | *.| | d.W V U Z *                                           ",
"                                        X M 9.c A U W z k G S l z ! ! G ! ,.,.+.! ! U ;                                         ",
"                                        4 K.6.P L L Z j z D c k k G D D U *.:.,.-.| ~ v                                         ",
"                                        n Y.r.U P U A k z z l d j z F S D { *.+.-.#.~ L $                                       ",
"                                        I.U.N.L P ~ D z V z k p p S ! F D ] { ! o.f.~ L :                                       ",
"                                      - ~.B.V.O.{ +.S V Z l d p 0 l Z l V ! G U ! -.U U 6                                       ",
"                                  .   7 !.N.i.q.p.d.G Z z p q 0 9 k c p D G G G ! p.Q L h                                       ",
"                                      1.Z.8. .@.-.-.D V z k d q 9 p l p Z G ! H o.J.` / 5.=                                     ",
"                                      i Q ^ o.-.+.^ Z B S S B j j p j F S G ! ] R.^.N.5.C.<                                     ",
"                                      1 _  .p.x.*.U F S D H S Z G F Z F ! { ! u.(./.A.8.M.#                                     ",
"                                      % I -.^ W { D W ! ] ] } { G G G F ! ^ { D.Q.K.O.l.3.                                      ",
"                                        x  .{ S c D ! | | &.,.} G G ! ! U D _ L.J.a.5.C.f                                       ",
"                                        e #.{ V S ! +.*.=.g.,.>.=.] T T ! G y.S.a.) 0.T.8   .                                   ",
"                                        2  .^ ~ ! { =.;.d.z.<.G.F.,.&.] { @.h.j.9.5.N.W.-                                       ",
"                                        % ' e.@.~ | ,.x.z.z.z.H.G.g.| ! [ -.b.k...4.E.t.                                        ",
"                                          1 J d.#.-.-.s.p.>.g.n.n.:.+.{ @.:.q.I / 7.2.@                                         ",
"                                            + N h.p.@.[ ! | ! +.-.-.%.p.x.x.$.Y / 3                                             ",
"                                                w d.b.s.U D ^ U | X.X.s.c.P.m.x &                                               ",
"                                                  : ( #.~ D R P @.-.-.h.F.v.u .                                                 ",
"                                                    X > t J Q U #.F.m.E 6 +                                                     ",
"                                                          O 1 r K m ,                                                           ",
"                                                                .                                                               ",
"                                                                                                                                ",
"                                                                                                                                ",
"                                                                                                                                ",
"                                                                                                                                ",
"                                                                                                                                ",
"                                                                                                                                ",
"                                                                                                                                ",
"                                                                                                                                ",
"                                                                                                                                ",
"                                                                                                                                ",
"                                                                                                                                ",
"                                                                                                                                ",
"                                                                                                                                ",
"                                                                                                                                ",
"                                                                                                                                ",
"                                                                                                                                ",
"                                                                                                                                ",
"                                                                                                                                "
};
