/* XPM */
static char *_a820eee145648fb90989adc7555cf10Q6JwmETtCnXavLuu[] = {
/* columns rows colors chars-per-pixel */
"64 64 88 1 ",
"  c #020204",
". c #030406",
"X c #040405",
"o c gray2",
"O c #050406",
"+ c black",
"@ c #060606",
"# c #000007",
"$ c #7C8F98",
"% c #6B7A83",
"& c #090806",
"* c #0F0C0A",
"= c #80929B",
"- c #5F6F78",
"; c #1E2024",
": c #889BA3",
"> c #798992",
", c #6D818A",
"< c #576068",
"1 c #442C07",
"2 c #161317",
"3 c #87959E",
"4 c #402B3C",
"5 c #414B57",
"6 c #546870",
"7 c #66747D",
"8 c #211505",
"9 c #33404A",
"0 c #8FA2AA",
"q c #2E1F05",
"w c #273038",
"e c #475762",
"r c #80969E",
"t c #32373D",
"y c #50370A",
"u c #592329",
"i c #34262A",
"p c #B5342E",
"a c #4A5E67",
"s c #5F676F",
"d c #852A29",
"f c #6F272F",
"g c #A82B25",
"h c #674A0B",
"j c #9C6708",
"k c #627B85",
"l c #728891",
"z c #C2740C",
"x c #FEA909",
"c c #825706",
"v c #D1352D",
"b c #48515B",
"n c #494046",
"m c #3A1820",
"M c #434848",
"N c #658F96",
"B c #613E06",
"V c #FFB905",
"C c #EB372F",
"Z c #F7F7F8",
"A c #B54B41",
"S c #90745F",
"D c #DEBF8D",
"F c #817D3F",
"G c #FFFE7F",
"H c #A99275",
"J c #FDC721",
"K c #AB7E05",
"L c #CE880A",
"P c #E3870B",
"I c #86544D",
"U c #766F6E",
"Y c #826E22",
"T c #E19C04",
"R c #C1A93F",
"E c #FFE64C",
"W c #873B3A",
"Q c #8C7B0B",
"! c #BEBEBF",
"~ c #C7C7C8",
"^ c gray70",
"/ c #060307",
"( c #8B5D5F",
") c #605749",
"_ c #7AAFB1",
"` c #E6D176",
"' c #E63E35",
"] c #E2C859",
/* pixels */
".oooOOooOOOoooOOOOOoOOOOoOOOoOoooOOOOOOoOOOOOoOOOOOOOOoOOOoOOOoo",
"ooOOOOXOOOOOOOOOOOOOOOOOOOOOOOOOOOOOOOOOOOOOOOOOOOOOOOOOOOOOOooo",
"OOOXXX..XXOX.OOOXX.XXXXX.XOXXOX.XXX.XX.X.XXOOOOOOXOOX.XOOXXOOOoo",
"oOOXXX.XXXO.XXXXX.XXXX.XXXX....XXXX..XXX.XXXX.XX.XX.XXXX.XXXXOOO",
"oOXX..XXX..XXX.XX.XXXX.XXXX..XXX.XXXXX.X.XXXXXXXXX.XXXX.XXXXX.OO",
"oO.XXXXXX.XXXX.XXXX..XXXX.XXXXXX.XXXX.XXXX..X.X..XXXXX.XXXXXOXOO",
"OOOXXXXXXXX.XXXXX..XXXX..XXXX.XXXXX.XXXX.XXXXXX.XXXX.XXXXX.X.XOo",
"OOOX.X.XXXX.XXXX..XXX..X.XX..XXX..X.XXX.XXXXX..XXX.XXXXXXXXXXOOo",
"oOOOXXXXXX.XXX.X.XXX..XXXX..XXXX.X.XXXX.XXX..XXXX..XXXX..XXX.XOo",
"OOO.XXXX.XXXXXXXXXXXXXXXX..XXX..XXXX..XXX...XXX.XXXX.X.XXXX.XXOo",
"OOXXX..XXXX..X.X.X.XXXX..XXXX.XXXX.XXXX.X.XXXX..XXX.XXXXX..XXXOO",
"OOXX.XXXXXXXXXXX.XXXXXXXXXXX.XXXXXXXXXX.XXXX.XXXX..X.XXX.XXXXXOO",
"OOX.XXXX.X.XXXX.XXXX.XX.XX.XXXX...XXX..XXXX.XX.X..XXXXXX.XXXXOOo",
"OOXXXXX.XXXXX.XXXX.XXXXXX.XXXX.XXXX..XXXX.X.XXX.XXXXXXXXXX.XXOOo",
"OOXXXXX.XXXX.XXXo@oXXX...XXX..XXXXX.XXXXXXXXX.XX.XXXX.XXXX.XXXOO",
"OOOXXXX.X..XXXXoX++oX.XXXXX.XXXXX..XXX..XXXX..XXX..XXXXX.XXXXXOo",
"OOXX.XXXX.XXXXO &n2+oXXXXX.XXXX.XXXXX.XXXXXXXXXXXX.XX...XXXX.OOo",
"OOXXXXX.XXXXXO@+3Z!* oXX.XXXX.XXXXX..XXXXX.XXXX.XXXX..XXXXX.XOOO",
"OOXXX..XXXX..Oo ~ZZ;+oXXXXX.X.XXXX.XXOX..XXXX..XXX.X.XXXX.XXXOOO",
"OOXX..XXX.XXXO@+t^<+@.XXXXX.XXXX..XXXXX.XXXOoooooOXXXXX.XXXXX.Oo",
"OOX.XXXX.XXoO.O@+++OO.XX.X.XXXX.XXXXX.Oo@@OX+++++OOXXX.XX.XXXXOo",
"OOXXXXXX.XO+XOOO@&&OXXX.XXXXX...XX..@@X+++O&;;;2*oOOX.XXXXX.XXOO",
"OOXXX.XXXO ;&XOX.OOOXXX.XXXX.XXXXOoo++&;Ms>%700:l2 o.XXXX.XXXXOO",
"OOX.X.XXXOX2@XO..XXX.XXXXXX.XXXOoo++w<>:0:r:-6r=5/oOXX.XXXXXXXOo",
"OO.XXXX...o XO..XX.XX.XXXOOOo@@O++i)70=$$$$$r6,s2 oOXX.XXXX..XOo",
"OOOXXXXXXXOoOOXXXX.X.XXO@  o+++oiSSAgsr$=$$$=$niXooOX.XX.X.XXXOO",
"OOOX..XXXXO..XXXXXXXXOo +2*.t569UAvCCp7r$=$=N(d.ooO.XXXXX..XXXOO",
"OOX..XXXX.XXXO..X.O@@X *M<t<%_N5,WC'Cpn>=$rNIg*.oO..XXX.XXXX.OOo",
"oO.XXXX.XXXX.X.XX@o++*@;be>aNa9a=,pvWHD<rrkAg& oO.XXX.XXXXX.OOOo",
"OOXXXX.XXXX...Oo@++tM<%-%:r65b6>30<IDDS4kUpd. @OOXXXX.XXXXXXXXOO",
"OOXXXXXXX...XOo++is%>3,:=r$-<,::kklHHn444vu OoX.XXXX.XX....XXXOo",
"oOX.XXXX.XXXOo+;-%%=:,7:=-e-r0,5dukb444fu8 @oOOXXXXXXXXXX.XXX.Oo",
"oo.OXXXX.XXX@+w3=6%r,-=%e6=0leupgil54udu@ @OOXX.X.XX.X.XXXX.XXOo",
"OOXXX..XXXXXo+;F$7b<%,a<70$a4gpu9laiff2 XoOOXX.XXXXX.XXXXX.XXOOo",
"oOX..XXXXXOOo@ y9e>>>a,>76tdvfw-,9ufm. @oOOX...XX...XXXX..XXXOOo",
"ooO.X.XXXOX@ #8hF;5:=$%-9fvd;e%<;mm@ ooOOOX.XXXXXOXXXXX.XXXXXOOo",
"OoOXXXX..O&#@jJG]Qh5><,bgpi97s-52& O@oOOO.XXXXXX.XXXX.XXXO..XOOo",
"OoOXX..Xo@#qLVJRqKGtb7=s4w6-e>>*+o@oOOOX.XXXXX.XXXX..XXXX..XXOOo",
"OOOX.XX@ #BxVLh1jKER#e:=k%s-,,;+@oOOXOX..XXXX.OXXXOXXXXX.XXXXOOo",
"oOO.XO&#&zxLy8yjKc1QFM7l7$%%wo+@OOXXX.XXXXXOXXXXX.OOXXX.XXXX.OOo",
"oOOOoX#1Pz1oqhccq*j`GYw3:=9*+O@OOXXXXXXXX..OXXX..XXXX.XXXXXXXXOo",
"OoOoX&hj1#&1BBy.qTJEYwt=-;+ @oOOOX.OXOX..X.XXX.XXXO..XXXX.XOOOOo",
"ooo.@11#+8q118#yxVTh+29w++@oOOOX.O.OXX..XXXX.XOXXXOXXXXXXX.XXOOo",
"ooO.&.#&*888.#cVxc*#@ ++@@OOOOX.XXXX.XX.XXX.XXXO.XOOXX.XXXX..OOo",
"OoooXo@o&**#&zxj8##&o@@@ooOOX.X.XXXX.XXXX.XXXX.O.XXO.XXXOX.OXOOo",
"OoOOoooo@@#qPzq##&@ooOOOOO.X.XXXX..X.OX...XXX..XXXX.XX.X..XXXOOo",
"OOOOOOOo.#yzy##&@OOOO.OOXX.X.XXXX.XXXX.XXXXX.XXXX.O.XXOO.XXOOOOo",
"OoO.XOOOo1BO#@@oOO...XXXX.XXXX..XXXO.XXXXX...XXX.OOXX..OXX.OOOOo",
"OoOOOOO.**#.&oOOOX.XXXXXXXXXXX.XXXX.XOOX.XXXXXXXXOOOX..XXXXOOOXo",
"oOOO..Oo. @ooOOOX.XXOX.XXXX.XXXXX.X.XXO..XXXX..OOOOOXXXXX.XOOXOo",
"OOOO.XOoooooOO..XXXOO..XXXX.XXXX.XXOXOOOXXX..XXXOO.OXXX.X.XXOOOo",
"OOOO.XXOOOOOO..XXXX.OOXX..XXXXXXXXXXOO.OOX.OXOX..XXXXX...XX.OOOo",
"OoOOOO..X.OO.XXOX..X.OXX.XXXX.XXXXXX.OXO.XXXXX..OXXX.OOXXO.XOOOo",
"OoOOOXOXXOO.OOOO.XXXX..XXXXOXXXXXX..XXX.XXXXX.OOXXXX.XXXX.XOOOOo",
"ooOO.XXXOOOXXOOOXXXXX.XXXX.OXXX.XXXXXX..XXXX.XXXX..XXX...XXOOOOo",
"ooOOOXX.X.XOX.OO.OO..XXX..XOXO.O.XOO..XXX..XXXO.OXXOXXX.OOXOOOOo",
"OoOOOOOX.XX.OOOOXOOXXXX.XXXX..XXXXOOOOOX..OXXOOOOXXO..XXOOOOXOOo",
"OoOXXOOOXOOXOOXO.OOOO..OXXOX.XXXX.OOXOOOXXXX.OOOXXX.OXXX.OOXXOOo",
"ooOOOOOOXOOOOOOOXOXOOXXOX.O.XXX.O.XXXOOXXOX.XOOOOOOXOO..OOXXOOOo",
"ooOOOXOOXOOOOOOOXOO.OXOO..OXXX.OOXXX.XOXX.XOOOO..XXOOOOXXO.OOOOo",
"ooOOO.O..OOXOOOXX.OXXXO.XXXXOOOXX.X.XXXO.XXOOXXXOXX.OOXXX..OXOOo",
"ooOO.XOXOOOOOOO...XXX.O.XXX.OOOO..OOXOOOO.OO..OOOO.XO.X..X.OOOoo",
"ooOOOOOOOOOOOOOOOOOOOOOOOOOOOOOOOOOOOOOOOOOOOOOOOOOOOOOOOOOOOOoo",
"oooooooooooooooooooooooooooooooooooooooooooooooOoooooooooooooooo"
};
