/* XPM */
static char *ae50416742d14423be50576d5edc43fckyQXqttuCV6GkxPI[] = {
/* columns rows colors chars-per-pixel */
"64 64 216 2 ",
"   c #000001",
".  c #0B0B0C",
"X  c #070708",
"o  c #150C0A",
"O  c #0F0F10",
"+  c #121214",
"@  c #16161A",
"#  c #1B1A1B",
"$  c #1C1714",
"%  c #0E1018",
"&  c #281908",
"*  c #221914",
"=  c #271E18",
"-  c #341D0F",
";  c #2A221C",
":  c #34241D",
">  c #3C261A",
",  c #1C1D23",
"<  c #191C2A",
"1  c #122127",
"2  c #232223",
"3  c #2D2925",
"4  c #25252A",
"5  c #2B2B2B",
"6  c #2B2726",
"7  c #372A25",
"8  c #2E302A",
"9  c #393628",
"0  c #222533",
"q  c #2C2C33",
"w  c #2B2C3B",
"e  c #252838",
"r  c #29343E",
"t  c #333334",
"y  c #3A3731",
"u  c #3D3933",
"i  c #36353A",
"p  c #393A3C",
"a  c #36383B",
"s  c #422C1C",
"d  c #422215",
"f  c #52361D",
"g  c #432E23",
"h  c #482F24",
"j  c #4A3325",
"k  c #42342B",
"l  c #4C352B",
"z  c #453827",
"x  c #563C2B",
"c  c #5B3A2B",
"v  c #533824",
"b  c #443E33",
"n  c #453C3A",
"m  c #5C3D30",
"M  c #603E2E",
"N  c #712D30",
"B  c #743339",
"V  c #3D443F",
"C  c #755907",
"Z  c #4B4628",
"A  c #5A422A",
"S  c #4E512D",
"D  c #464035",
"F  c #45423C",
"G  c #4B453A",
"H  c #4E483C",
"J  c #494336",
"K  c #524B3D",
"L  c #594836",
"P  c #5C543F",
"I  c #654729",
"U  c #634B32",
"Y  c #6A4D34",
"T  c #6E4A39",
"R  c #624234",
"E  c #6D5236",
"W  c #735434",
"Q  c #7B5732",
"!  c #7B5C3A",
"~  c #765539",
"^  c #735828",
"/  c #7F6B2F",
"(  c #1B3F4C",
")  c #2C2F40",
"_  c #2F3141",
"`  c #233D44",
"'  c #373841",
"]  c #383A44",
"[  c #3E4043",
"{  c #374648",
"}  c #364B54",
"|  c #37535A",
" . c #254851",
".. c #385B66",
"X. c #2F5C6B",
"o. c #396876",
"O. c #4B4B4D",
"+. c #464545",
"@. c #544D43",
"#. c #534D49",
"$. c #5A5345",
"%. c #55524C",
"&. c #5C564B",
"*. c #5D5C4D",
"=. c #565144",
"-. c #4D4E53",
";. c #545455",
":. c #5D5952",
">. c #555659",
",. c #57585C",
"<. c #5C5C5D",
"1. c #5B5754",
"2. c #645C4C",
"3. c #675A48",
"4. c #795742",
"5. c #645B53",
"6. c #655C57",
"7. c #614D44",
"8. c #5F604F",
"9. c #68604F",
"0. c #656251",
"q. c #6B6353",
"w. c #67635B",
"e. c #746B5A",
"r. c #71675B",
"t. c #5C5E61",
"y. c #596266",
"u. c #4A717C",
"i. c #5E6275",
"p. c #646464",
"a. c #6A6665",
"s. c #656669",
"d. c #6B6A6A",
"f. c #696968",
"g. c #746C64",
"h. c #776F68",
"j. c #60706D",
"k. c #6D6E71",
"l. c #706F71",
"z. c #737273",
"x. c #797879",
"c. c #8B2632",
"v. c #AD263E",
"b. c #C12738",
"n. c #8F721E",
"m. c #95781F",
"M. c #A07B1A",
"N. c #815F3B",
"B. c #835B30",
"V. c #84623C",
"C. c #8A653D",
"Z. c #8D6539",
"A. c #956A3C",
"S. c #96693B",
"D. c #876846",
"F. c #936B42",
"G. c #9B6E40",
"H. c #9D7245",
"J. c #9F7548",
"K. c #9C794E",
"L. c #A27645",
"P. c #A17648",
"I. c #A47A4A",
"U. c #A87A44",
"Y. c #867B6E",
"T. c #B78800",
"R. c #C59700",
"E. c #CCA013",
"W. c #998342",
"Q. c #B18350",
"!. c #A38C53",
"~. c #3A7081",
"^. c #517985",
"/. c #537C89",
"(. c #4F7985",
"). c #777981",
"_. c #617483",
"`. c #5C8896",
"'. c #56818E",
"]. c #778189",
"[. c #668F9C",
"{. c #648389",
"}. c #508CA0",
"|. c #6698A8",
" X c #69A8BC",
".X c #74A9B7",
"XX c #7AB7C9",
"oX c #7DBED1",
"OX c #6EB3CA",
"+X c #7FC4D8",
"@X c #7CC8E2",
"#X c #828183",
"$X c #8D8C8C",
"%X c #8E8E91",
"&X c #98B1B9",
"*X c #B4B4B6",
"=X c #86BCCC",
"-X c #80C4D8",
";X c #ACD2DD",
":X c #86CEE2",
">X c #88CFE4",
",X c #8AD2E5",
"<X c #8CD6EA",
"1X c #8ED9ED",
"2X c #85D1E7",
"3X c #92D9ED",
"4X c #8EDCF3",
"5X c #92DEF3",
"6X c #B0DEEC",
"7X c #94E0F6",
"8X c #95E4F9",
"9X c #98E8FF",
"0X c #CFCCCE",
"qX c #D7ECF3",
"wX c white",
"eX c #F4FFFF",
/* pixels */
"                                                                                                                                ",
"                                                                                                                                ",
"                                                                                                                                ",
"                                                                                                                                ",
"                                                                                                                                ",
"                                                                                                                                ",
"                                                                                                                                ",
"                                                              X X X                                                             ",
"                                                      X t ,.p.a.f.p.t.-.5                                                       ",
"                                                    p k.r.L 9 Y V.! ! 3.a.s.4                                                   ",
"                                                  <.g.! I Z S Z J.I.L.H.Z.~ l.-.                                                ",
"                                                p.q.Q F.z 9 9 z F.H.P.J.J.L.Q g.,.                                              ",
"                                              >.1.I D.V.C.V.N.V.~ Y W D.P.H.I.B.g.[                                             ",
"                                            p.g.I W x x A L Y Q Z.G.F.W Y F.H.I.Q l..                                           ",
"                                          p.#.> : 1 ( X.o.~.o.o.| V L Z.F.E C.J.S.5.[                                           ",
"                                        2 z.- g  ..X=X-X:X,X,X:X+XOX}...L Q W I.L.4.,.                                          ",
"                                          ;.a.a qXwXqX1X3X1X1X1X3X5X5X4X Xr Z.N.U j p.X                                         ",
"                                          t x.0XwXqX3X<X<X<X<X<X<X<X<X1X1Xo.W Y D.A h.a                                         ",
"                                        X p.y.eX6X<X<X<X1X1X<X<X<X<X<X<X,Xo.v N.! C.D.;.                                        ",
"                                        , &.u.8X2X<X<X<X<X<X<X<X<X<X,X5X+X` s V.~ L.K.,.                                        ",
"                                        , 6.{ 9X5X5X5X5X5X5X5X7X8X8X7X,X... j V.~ U.I.,.                                        ",
"                                        + h.& ..oXoX+X-X+XoXXX.X|.`.^.u...# A ! ! A.D.;.                                        ",
"                                          z.* ].[.(.^.^./.'.'.`.|..XoX1X4X} Q U V.I Y.t                                         ",
"                                          +.<.;X8X5X5X5X5X7X8X8X8X7X5X<X4Xy.A.! v 1.,.                                          ",
"                                            d.&X8X>X<X<X<X<X<X<X<X<X,X5X@X7.U.Q.s k.2                                           ",
"                                            p #X=X7X5X1X<X<X<X<X1X5X7X2Xj.S.C.g < i p.                                          ",
"                                              O.x.[.OX:X8X7X7X5X,XXX{.K f k 2 e ] w p.X                                         ",
"                                                5 6.d._.} | } { 5 ; * * 2 @ _ w _ w p.X                                         ",
"                                                    z.!.& = $ o $ 8 y D =.b ' i._ e p.X                                         ",
"                                                  @ a.T.P u # 8 H G 2.$.K &.n.W.]._ p.X                                         ",
"                                                  ] &.C &.0.9 &.@.F F u y P E.R./ ).p.                                          ",
"                                                  t.+.2 0.q.H 5.^ M.n.b 5 2 L m.K <.$X                                          ",
"                                                . a.K b q.0.G 8.N b.c.$.y < 4 #.e.K p.p                                         ",
"                                                q p.K H r.2.K 0.B v.c.0.y w r # G e.@.a.                                        ",
"                                                >.&.G H e.2.G q.0.*.*.q.5 ) 4 @.q.9.%.<.                                        ",
"                                                p.$.G @.e.&.@.q.0.q.q.0.5 0 G q.e.J z.+                                         ",
"                                              . p.&.G 2.e.&.@.q.0.0.0.q.2 , 2.e.J #X+.                                          ",
"                                              @ f.=.u $.0.b b 0.q.q.0.9.; 0 q D <.%X2                                           ",
"                                              5 ,., , q ] $X$X+.t i i 4 x R , O.y.-.2                                           ",
"                                              t ;.7 2 < ' *X0X] < 0 e , g T 7 ).0 p.#                                           ",
"                                              p 5.I : 2 @.b 3 b D G 3 % j R x d._ d.                                            ",
"                                              p 5.v = 2.e.e.K 2.e.e.0.5 = T > x.).5                                             ",
"                                              O z.j ; q.2.G 3 %.G 0.0.0.3 k p.t.                                                ",
"                                                5 x.u 0.r.$.<.k.;.$.q.2.%.#Xp                                                   ",
"                                              X   O.w.2.q.$.p.  a.@.q.0.*.O.  X                                                 ",
"                                                  O.:.q.0.:.;.  O.1.2.q.$.f.                                                    ",
"                                                  f.q F 2.w.p   2 a.K i 2 p.#                                                   ",
"                                                + p.e w H a.4   . d.8 ) e +.+.                                                  ",
"                                                + p.0 q K a.2     p.u e e t p.                                                  ",
"                                                X p.8 @.3.p.2     p w.b H $.f.X                                                 ",
"                                                X p.$.e.$.f.+     + f.$.e.$.f.@                                                 ",
"                                                + k.$.e.&.p.        <.@.e.2.f.,                                                 ",
"                                                l.#.7 =.%.p.        >.%.G k +.p.                                                ",
"                                              p d.v l l g d.X       d.y > T c z.X                                               ",
"                                          + s.a.# * 7 x l p.        <.L h : o <.p                                               ",
"                                          z.7.c m l T T l p.        [ 5.j : j > z.2                                             ",
"                                        5 6.d R M s : 7 n p.        p 5.- 4.4.~ L <.                                            ",
"                                        @ z.+.+.O.;.p.y.s.#         . l.n k h h n d.                                            ",
"                                          + t a t 2 + X               @ >.p.t.t.s.2                                             ",
"                                                                            + .                                                 ",
"                                                                                                                                ",
"                                                                                                                                ",
"                                                                                                                                ",
"                                                                                                                                "
};
