/* XPM */
static char *_53b5e87f8b14abed8b1946f6033516bo37srDtNWzdZtwMe[] = {
/* columns rows colors chars-per-pixel */
"64 64 166 2 ",
"   c #000001",
".  c #01010B",
"X  c #010213",
"o  c #00041C",
"O  c #00081F",
"+  c #000523",
"@  c #000824",
"#  c #01062B",
"$  c #00082C",
"%  c #010731",
"&  c #000A33",
"*  c #010C3A",
"=  c #00103A",
"-  c #010E43",
";  c #000E4A",
":  c #001145",
">  c #011149",
",  c #00134A",
"<  c #001449",
"1  c #00144B",
"2  c #00134C",
"3  c #01154F",
"4  c #01164F",
"5  c #000F52",
"6  c #001651",
"7  c #001453",
"8  c #011755",
"9  c #021B51",
"0  c #011956",
"q  c #001258",
"w  c #001758",
"e  c #00155A",
"r  c #01195A",
"t  c #011B5A",
"y  c #001B5C",
"u  c #012259",
"i  c #001765",
"p  c #001B63",
"a  c #011E63",
"s  c #001E64",
"d  c #001769",
"f  c #001C6C",
"g  c #001E72",
"h  c #001F7A",
"j  c #022063",
"k  c #012066",
"l  c #00216B",
"z  c #00216D",
"x  c #01246C",
"c  c #042A6F",
"v  c #002275",
"b  c #052F76",
"n  c #00237B",
"m  c #002979",
"M  c #042E78",
"N  c #002A7C",
"B  c #063177",
"V  c #05367C",
"C  c #002482",
"Z  c #002C83",
"A  c #00248A",
"S  c #002C8B",
"D  c #003483",
"F  c #063A82",
"G  c #053B87",
"H  c #003288",
"J  c #00318F",
"K  c #00358E",
"L  c #003B8C",
"P  c #002B94",
"I  c #002C9B",
"U  c #003493",
"Y  c #003996",
"T  c #00319C",
"R  c #003A98",
"E  c #003B9A",
"W  c #002EA1",
"Q  c #0032A4",
"!  c #0035B1",
"~  c #074493",
"^  c #00449D",
"/  c #0043A3",
"(  c #014AA6",
")  c #0046AA",
"_  c #014BAB",
"`  c #0952A4",
"'  c #0254AD",
"]  c #0D54AE",
"[  c #004FB1",
"{  c #014CBD",
"}  c #0154B4",
"|  c #0E56B1",
" . c #0E5AB3",
".. c #0657BF",
"X. c #025CB9",
"o. c #105FB5",
"O. c #0364BE",
"+. c #046ABF",
"@. c #1162B6",
"#. c #1365BA",
"$. c #146ABD",
"%. c #0050C4",
"&. c #0958C0",
"*. c #056DC3",
"=. c #146DC0",
"-. c #0773C6",
";. c #0474CE",
":. c #1673C3",
">. c #177AC4",
",. c #1475CD",
"<. c #1378CF",
"1. c #0B7ED2",
"2. c #1377D1",
"3. c #137BD2",
"4. c #167FDD",
"5. c #1983CD",
"6. c #0A80D2",
"7. c #0785DC",
"8. c #0788DB",
"9. c #1D8BD2",
"0. c #1689DC",
"q. c #2193D7",
"w. c #2E9BD7",
"e. c #2E9CD8",
"r. c #309ED7",
"t. c #309DD8",
"y. c #33A2D9",
"u. c #3BA6DB",
"i. c #198EE4",
"p. c #0F95E1",
"a. c #1A93E6",
"s. c #139CE4",
"d. c #2392E5",
"f. c #26A6E2",
"g. c #2FAAE7",
"h. c #2FACE9",
"j. c #31A7E6",
"k. c #30AAE6",
"l. c #31ADEA",
"z. c #33B2ED",
"x. c #3BB8EB",
"c. c #33B5F2",
"v. c #35BBF1",
"b. c #38BDF1",
"n. c #3CC3F3",
"m. c #4BC2EB",
"M. c #43CDF5",
"N. c #45D2F6",
"B. c #4AD5F6",
"V. c #4CD9F7",
"C. c #50D6F7",
"Z. c #51DDF7",
"A. c #58DEF6",
"S. c #52DBF8",
"D. c #56E0F7",
"F. c #5EE2F7",
"G. c #5DE3F8",
"H. c #64E7F7",
"J. c #68E8F7",
"K. c #61E6F8",
"L. c #69E4F8",
"P. c #6CEAFA",
"I. c #74EDFA",
"U. c #7BEFF9",
"Y. c #84EEF9",
"T. c #8EF3FA",
/* pixels */
". X X X X o o o o o X X X X . . . . . . . . . . . . .     . . . . .   .                                                         ",
"X X X o o o O O + o o o o o X X X X X . . . . . . . . . . . . . . . . . . . . . . . . . . . . . . . . . . . . .     . .         ",
"X X o $ = = = = & & & & & & & $ $ @ @ @ @ @ @ @ + @ + + + + + + o o o o o o o o o o o o X o X X X X X X X X X X X X X X . .     ",
"X X + 9 ` ~ G M y 0 9 0 r j c B c y 0 9 6 3 3 3 3 3 3 1 1 > > > > > > : - - * * * * - - * * * & & % $ # $ & % # # # @ @ + .     ",
"X X + u F 1 1 6 6 0 9 6 6 3 1 > : : * * * * * * * * * * & & & & & $ & $ @ @ @ @ @ + + o o o o o o o o o o + o o o X X o + .     ",
"X X + 9 V 1 6 r a l z z s r 9 3 1 1 1 : : : : : - - - - * * * * * * * * * & & $ @ @ @ @ @ @ + + + + + + @ @ @ + o o X X + .     ",
"X X + 9 b 3 r l N K R Y H m x k a y y y r r r r r w 0 8 0 8 6 6 6 2 2 > > > > : - * - * * * & * * * * * 2 q 6 * @ o o o @ .     ",
"X X o 1 k 6 a N ( ;.8.7.;.X.' ' _ _ ( ( ( ( / / / / / / R R R R R U U U U U J S S S S Z Z Z C N N N N S Q ! Q f - # o o + .     ",
"X X o : y 0 l Y 1.L.U.I.P.F.A.S.C.C.B.B.B.B.N.M.M.M.M.M.n.n.n.n.n.n.b.b.v.v.v.c.c.c.c.z.z.z.l.l.l.l.l.z.c.c.l.&.i & + o + .     ",
". X o = 0 0 x / s.T.f.q.9.5.5.>.>.:.$.$.$.#.#.#.#.@.@.@.@.o. . . . . . . . .| ] | | ] ] ] ] ] ] ] ] ] ] ] | x.4.h * + o @ .     ",
". . o * 9 6 l / s.Y.^ 6 > : * & $ $ @ @ # # # # # @ @ @ @ @ @ + + + + + + + + + + + + + + o o o o + o + + ; y.0.C * + o # .     ",
". . X & 3 3 s R p.U.L # X X X . . . . . . . . . . . . .   . .   . .   .   .   .       .   .     .       . * y.4.g * o o & .     ",
". . X & 3 3 y H 6.I.L + X . . .                                                                         . * y.2.8 # o o * .     ",
". . X & 6 1 r N -.J.L + . . .                                                                           . * r.,.2 @ o o & .     ",
". . X & 3 1 r m -.H.D o .                                                                               . * r.,.2 @ o o # .     ",
"  . X & 3 1 0 m *.K.D X                                                                                 . * e.,.2 # o o # .     ",
"  . X & 3 > 0 m *.G.Z X                                                                                 . * r.,.6 @ o o # .     ",
"  . X & 3 > 0 m *.G.Z X                                                                                 . * r.,.6 # o o # . .   ",
"  . X & 3 > 8 n *.G.Z X                                                                                 . * e.,.2 # o o # .     ",
"  . X & 3 1 0 n +.G.N X                                                                                 . * e.,.6 # o o # .     ",
"  . X & 3 > 8 v *.G.N X                                                                                 . * e.,.6 # o o # .     ",
"  . X & 3 > 8 v +.D.N X                                                                                 . * w.,.6 # o o # .     ",
"    X & 3 > 6 v O.Z.n X                                                                                 . * e.,.6 # o o # .     ",
".   X & 6 > 6 v O.Z.n X                                                                                 . * e.,.6 # o o # . .   ",
"  . X * r > 6 z O.Z.n X                                                                                 . * w.<.6 # o o # .     ",
"  . . * r : 3 z X.Z.v X                                                                                 . * w.<.8 # o + # .     ",
"  . X & 3 - 3 l X.Z.v X                                                                                 . * w.<.8 # o o # .     ",
"  . X & > - 2 f X.V.v X                                                                                 . * w.<.w # o o # .     ",
". . . & > * > f X.V.v X                                                                                 . * w.2.w % o o # .     ",
"  . . & > * > f } B.g X                                                                                 . * w.3.w & + o # .     ",
"  . . $ > * > p } B.g X                                                                                 . * e.3.w & o o # .     ",
".   . $ - * > p } B.g X                                                                                 . * w.<.w & + o # .     ",
"  . . $ - * - p } N.g X                                                                                 . * w.3.w & + o # .     ",
". . . $ * & - y } N.g X                                                                                 . * w.3.w & o o # .     ",
"  . . $ * & * w [ N.g X                                                                                 . * e.3.w & + o # .     ",
"  . . @ * $ * w [ N.g X                                                                                 . * e.3.w & o o # .     ",
"    . $ * $ * w _ N.g .                                                                                 . * w.3.w # + o # .     ",
"    . # * @ * 8 _ N.g .                                                                                 . * w.3.w # o o # .     ",
"    . # * # * 8 _ N.f .                                                                                 . * w.3.w $ o o # .     ",
"    . # * @ * 6 _ N.g .                                                                                 . * w.3.w # o o # .     ",
"    . # * @ & 6 ) N.f .                                                                                 . * e.3.w # o o # .     ",
"    . # * @ $ 2 / N.f .                                                                                 . * e.3.w # o o # .     ",
"    . # * @ $ 2 / M.g .                                                                                 . * e.3.w $ o o # . .   ",
"    . # & + $ ; / N.f .   .                                                                             . * e.3.w # o o # .     ",
"    . # & + @ ; / N.g .                                                                                 . * e.3.w # o o # . .   ",
"    . # & + @ > / M.g .                                                                                 . * e.3.w # o o # .     ",
"    . @ & + @ > / M.g X                                                                                 . * e.3.w # o o # .     ",
"    . # * + @ > / M.g X                                                                                 . * t.3.w # o o # .     ",
"    . # * + @ ; / M.g X                                                                                 . * e.3.8 # o o # .     ",
"    . # - + @ ; / M.g .                                                                                 . * e.3.w # o o # .     ",
"    . # - + @ ; / N.g X                                                                                 . * e.3.w # o o @ .     ",
"    . # * + @ 2 ) N.g X                                                                                 . * y.0.f & o o @ . .   ",
"    . @ * + & w { N.h X . . . .         .     .     . . . .   . .       .   . .     . . .   . . . . . . . * y.a.n * + o @ .     ",
"    . + & + * d %.B.n # @ @ + + + + + + + + + + o o + + + o o o o o + o + + o + + + + + + + + @ + + @ @ # ; u.a.A - + o @ .     ",
"    . o @ + & i { V.,.=.$.$.$.#.$.#.#.#.#.#.#.#.#.#.#.#.#.#.#.@.#.#.#.#.#.@.#.#.#.#.#.#.#.#.#.#.$.$.$.=.$.:.m.i.n * + o # .   . ",
"    . o @ + $ 6 T d.l.z.l.j.j.j.j.j.j.j.j.j.g.k.j.j.k.l.l.l.h.k.l.l.l.l.l.l.l.k.k.l.l.l.l.l.l.l.z.z.z.v.b.b.z...p & o o # .     ",
"    . o @ o @ * w A W I C f f f f f f f f f f f g g g g g g v v n n n n n n v v v v g g g g g g v v n S T Q P f * @ o o * .     ",
"    . o + o o @ * ; 5 ; * $ $ $ $ $ # $ $ $ & & & & & & * * * * * * * * * * * * * & & & & & & & $ $ & * ; 6 ; * @ o o o - .     ",
"    . o + X o o + @ # @ + o o o o o o o o o o o o o o o o + + + + + + + + + + + o o o o o o o o o o o + @ # @ + o X X o 2 .     ",
"    . o @ X X o o o o o o X X o o o o o X o o o o o o o o o o o o o o o o o o o o o o o o X X X X X X o o o o o X X X o 3 .     ",
"    . o # # # # # # # # # # # # & % # # # & & & * & & $ # % $ # # # $ % # % # # % # # # # # # # * - > * # # # # * > 8 y > .     ",
"    . . X X X X X X X X X X X X X X X X X X X X X X X X X X X X X X X X X X X X X X X X X X X X X X X X X X X X X X X X X .     ",
"      . . . .   . . . . . . . . . . . . . . . . . . . .   . . . . . . .           .     .                       .               ",
"                                                                                                                                "
};
